<svg width="51" height="48" viewBox="0 0 51 48" fill="none" xmlns="http://www.w3.org/2000/svg">
<g clip-path="url(#clip0_241_3085)">
<rect width="51" height="48" rx="24" fill="#119BFF"/>
<path d="M37.8604 34.1818V13.8182H43.3888V29.7273H51.6217V34.1818H37.8604Z" fill="white"/>
<path d="M19.1572 34.1818V13.8182H27.9868C29.5379 13.8182 30.8405 14.027 31.8944 14.4446C32.955 14.8622 33.7538 15.4522 34.2907 16.2145C34.8343 16.9768 35.1061 17.875 35.1061 18.9091C35.1061 19.6581 34.9404 20.3409 34.6089 20.9574C34.2841 21.5739 33.8267 22.0909 33.2368 22.5085C32.6468 22.9195 31.9574 23.2045 31.1686 23.3636V23.5625C32.0436 23.5956 32.839 23.8177 33.555 24.2287C34.2709 24.633 34.8409 25.1932 35.2652 25.9091C35.6894 26.6184 35.9015 27.4536 35.9015 28.4148C35.9015 29.5284 35.6099 30.5194 35.0265 31.3878C34.4498 32.2562 33.6279 32.9389 32.5606 33.4361C31.4934 33.9332 30.2207 34.1818 28.7425 34.1818H19.1572ZM24.6856 29.767H27.2709C28.1989 29.767 28.8949 29.5947 29.3589 29.25C29.8229 28.8987 30.055 28.3816 30.055 27.6989C30.055 27.2216 29.9456 26.8172 29.7268 26.4858C29.5081 26.1544 29.1965 25.9025 28.7922 25.7301C28.3944 25.5578 27.9139 25.4716 27.3504 25.4716H24.6856V29.767ZM24.6856 22.0511H26.9527C27.4366 22.0511 27.8641 21.9749 28.2354 21.8224C28.6066 21.67 28.8949 21.4512 29.1004 21.1662C29.3125 20.8745 29.4186 20.5199 29.4186 20.1023C29.4186 19.4725 29.1932 18.9919 28.7425 18.6605C28.2917 18.3224 27.7216 18.1534 27.0322 18.1534H24.6856V22.0511Z" fill="white"/>
<path d="M-0.62207 18.2727V13.8182H17.0768V18.2727H10.9518V34.1818H5.50293V18.2727H-0.62207Z" fill="white"/>
</g>
<defs>
<clipPath id="clip0_241_3085">
<rect width="51" height="48" fill="white"/>
</clipPath>
</defs>
</svg>
